# Blender 5.1.0
# www.blender.org
mtllib SH1107.mtl
o SH1107
v -0.015674 -0.017000 0.032140
v -0.015674 -0.017000 0.033740
v -0.015674 0.017000 0.032140
v -0.015674 0.017000 0.033740
v 0.031326 -0.017000 0.032140
v 0.031326 -0.017000 0.033740
v 0.031326 0.017000 0.032140
v 0.031326 0.017000 0.033740
vn -0.0000 1.0000 -0.0000
vn -1.0000 -0.0000 -0.0000
vn -0.0000 -1.0000 -0.0000
vn 1.0000 -0.0000 -0.0000
vn -0.0000 -0.0000 -1.0000
vn -0.0000 -0.0000 1.0000
vt 0.618974 0.485227
vt 0.618974 0.461697
vt 0.964457 0.461697
vt 0.964457 0.485227
vt 0.023568 0.485227
vt 0.023568 0.461697
vt 0.273492 0.461697
vt 0.273492 0.485227
vt 0.714534 0.508756
vt 0.714534 0.485227
vt 0.964457 0.485227
vt 0.964457 0.508756
vt 0.108754 0.112254
vt 0.890143 0.112254
vt 0.890143 0.394798
vt 0.108754 0.394798
vt 0.890142 0.892147
vt 0.108754 0.892147
vt 0.108754 0.609604
vt 0.890142 0.609604
s 0
usemtl SH1107
f 3/1/1 4/2/1 8/3/1 7/4/1
f 1/5/2 2/6/2 4/7/2 3/8/2
f 5/8/3 6/7/3 2/2/3 1/1/3
f 7/9/4 8/10/4 6/11/4 5/12/4
f 3/13/5 7/14/5 5/15/5 1/16/5
f 8/17/6 4/18/6 2/19/6 6/20/6
