# Blender 4.0.1
# www.blender.org
mtllib WM.mtl
o obj_0.001
v 0.150000 -0.154001 0.030000
v 0.150000 -0.180000 0.004001
v 0.150000 -0.180000 0.000000
v 0.150000 0.150000 -0.000000
v 0.150000 0.150000 0.030000
v -0.150000 0.150000 0.030000
v -0.150000 0.150000 -0.000000
v -0.150000 -0.180000 0.000000
v -0.150000 -0.180000 0.004001
v -0.150000 -0.154001 0.030000
v -0.050003 -0.177379 0.006622
v -0.050003 -0.175257 0.004500
v -0.050003 -0.155454 0.024303
v -0.050003 -0.157576 0.026425
v 0.050003 -0.157576 0.026425
v 0.050003 -0.155454 0.024303
v 0.050003 -0.175257 0.004500
v 0.050003 -0.177379 0.006622
vn 1.0000 -0.0000 -0.0000
vn -1.0000 -0.0000 -0.0000
vn -0.0000 1.0000 -0.0000
vn -0.0000 -0.0000 -1.0000
vn -0.0000 -0.7071 0.7071
vn -0.0000 -1.0000 -0.0000
vn -0.0000 -0.7071 -0.7072
vn -0.0000 0.7071 0.7071
vn -0.0000 -0.0000 1.0000
s 0
usemtl color_6383466.001
f 3//1 4//1 2//1
f 1//1 2//1 4//1
f 1//1 4//1 5//1
f 8//2 9//2 7//2
f 9//2 10//2 7//2
f 6//2 7//2 10//2
f 5//3 7//3 6//3
f 13//1 14//1 12//1
f 11//1 12//1 14//1
f 15//2 16//2 17//2
f 15//2 17//2 18//2
f 7//3 5//3 4//3
f 3//4 7//4 4//4
f 15//5 10//5 14//5
f 3//6 2//6 9//6
f 3//6 9//6 8//6
f 18//5 2//5 15//5
f 2//5 1//5 15//5
f 10//5 15//5 1//5
f 13//7 16//7 15//7
f 13//7 15//7 14//7
f 18//8 17//8 12//8
f 18//8 12//8 11//8
f 5//9 6//9 10//9
f 5//9 10//9 1//9
f 16//5 13//5 12//5
f 16//5 12//5 17//5
f 8//4 7//4 3//4
f 18//5 11//5 9//5
f 18//5 9//5 2//5
f 11//5 14//5 9//5
f 10//5 9//5 14//5
