# Blender 5.1.0
# www.blender.org
mtllib axis.mtl
o axis
v -0.015326 -0.008300 -0.005184
v -0.016246 -0.008300 -0.003809
v -0.016250 -0.007300 -0.005802
v -0.017250 -0.008300 -0.004802
v -0.015867 -0.007300 -0.005725
v -0.017173 -0.008300 -0.004423
v -0.015250 -0.007300 -0.004802
v -0.015325 -0.007300 -0.004430
v -0.015543 -0.007300 -0.005509
v -0.015543 -0.008300 -0.005509
v -0.016633 -0.007300 -0.005725
v -0.015867 -0.008300 -0.005725
v -0.017250 -0.007300 -0.004802
v -0.017173 -0.007300 -0.004423
v -0.016957 -0.007300 -0.005509
v -0.016246 -0.007300 -0.003809
v -0.015864 -0.007300 -0.003887
v -0.015540 -0.007300 -0.004105
v -0.016629 -0.007300 -0.003884
v -0.016955 -0.007300 -0.004099
v -0.016955 -0.008300 -0.004099
v -0.015325 -0.008300 -0.004430
v -0.015326 -0.007300 -0.005184
v -0.016629 -0.008300 -0.003884
v -0.017174 -0.007300 -0.005184
v -0.016250 -0.008500 -0.004379
v -0.016250 -0.008500 -0.004805
v -0.015824 -0.008500 -0.004805
v -0.015949 -0.008500 -0.004504
v -0.015450 -0.008500 -0.004805
v -0.015510 -0.008500 -0.004505
v -0.016676 -0.008500 -0.004805
v -0.016551 -0.008500 -0.004504
v -0.017050 -0.008500 -0.004802
v -0.016989 -0.008500 -0.004496
v -0.016816 -0.008500 -0.004236
v -0.016556 -0.008500 -0.004063
v -0.016250 -0.008500 -0.004002
v -0.015944 -0.008500 -0.004063
v -0.015682 -0.008500 -0.004245
v -0.016250 -0.008500 -0.005231
v -0.016250 -0.008500 -0.005602
v -0.015949 -0.008500 -0.005106
v -0.015944 -0.008500 -0.005541
v -0.015511 -0.008500 -0.005108
v -0.015684 -0.008500 -0.005367
v -0.016551 -0.008500 -0.005106
v -0.016556 -0.008500 -0.005541
v -0.016989 -0.008500 -0.005108
v -0.016816 -0.008500 -0.005367
v -0.015250 -0.008300 -0.004802
v -0.017174 -0.008300 -0.005184
v -0.016957 -0.008300 -0.005509
v -0.015540 -0.008300 -0.004105
v -0.015864 -0.008300 -0.003887
v -0.016633 -0.008300 -0.005725
v -0.016250 -0.008300 -0.005802
v -0.016250 0.021700 -0.005802
v -0.016955 0.029200 -0.004099
v -0.015543 0.029200 -0.005509
v -0.016246 0.021700 -0.003809
v -0.015864 0.021700 -0.003887
v -0.015867 0.021700 -0.005725
v -0.016246 0.029200 -0.003809
v -0.016629 0.029200 -0.003884
v -0.015540 0.021700 -0.004105
v -0.015543 0.021700 -0.005509
v -0.015250 0.021700 -0.004802
v -0.015326 0.021700 -0.005184
v -0.016629 0.021700 -0.003884
v -0.016633 0.021700 -0.005725
v -0.016633 0.029200 -0.005725
v -0.015326 0.029200 -0.005184
v -0.016955 0.021700 -0.004099
v -0.016957 0.021700 -0.005509
v -0.017250 0.021700 -0.004802
v -0.017174 0.021700 -0.005184
v -0.016957 0.029200 -0.005509
v -0.015250 0.029200 -0.004802
v -0.015325 0.021700 -0.004430
v -0.015325 0.029200 -0.004430
v -0.017173 0.021700 -0.004423
v -0.016250 0.029500 -0.005231
v -0.016250 0.029500 -0.004805
v -0.016250 0.029500 -0.004002
v -0.015944 0.029500 -0.004063
v -0.016250 0.029500 -0.005602
v -0.015944 0.029500 -0.005541
v -0.015824 0.029500 -0.004805
v -0.015949 0.029500 -0.005106
v -0.015682 0.029500 -0.004245
v -0.015684 0.029500 -0.005367
v -0.015450 0.029500 -0.004805
v -0.015511 0.029500 -0.005108
v -0.016556 0.029500 -0.004063
v -0.016556 0.029500 -0.005541
v -0.016676 0.029500 -0.004805
v -0.016551 0.029500 -0.005106
v -0.016816 0.029500 -0.004236
v -0.016816 0.029500 -0.005367
v -0.017050 0.029500 -0.004802
v -0.016989 0.029500 -0.005108
v -0.016250 0.029500 -0.004379
v -0.015949 0.029500 -0.004504
v -0.015510 0.029500 -0.004505
v -0.016551 0.029500 -0.004504
v -0.016989 0.029500 -0.004496
v -0.017174 0.029200 -0.005184
v -0.015867 0.029200 -0.005725
v -0.016250 0.029200 -0.005802
v -0.017250 0.029200 -0.004802
v -0.017173 0.029200 -0.004423
v -0.015864 0.029200 -0.003887
v -0.015540 0.029200 -0.004105
v 0.015326 0.008300 -0.005184
v 0.016246 0.008300 -0.003809
v 0.016250 0.007300 -0.005802
v 0.017250 0.008300 -0.004802
v 0.015867 0.007300 -0.005725
v 0.017173 0.008300 -0.004423
v 0.015250 0.007300 -0.004802
v 0.015325 0.007300 -0.004430
v 0.015543 0.007300 -0.005509
v 0.015543 0.008300 -0.005509
v 0.016633 0.007300 -0.005725
v 0.015867 0.008300 -0.005725
v 0.017250 0.007300 -0.004802
v 0.017173 0.007300 -0.004423
v 0.016957 0.007300 -0.005509
v 0.016246 0.007300 -0.003809
v 0.015864 0.007300 -0.003887
v 0.015540 0.007300 -0.004105
v 0.016629 0.007300 -0.003884
v 0.016955 0.007300 -0.004099
v 0.016955 0.008300 -0.004099
v 0.015325 0.008300 -0.004430
v 0.015326 0.007300 -0.005184
v 0.016629 0.008300 -0.003884
v 0.017174 0.007300 -0.005184
v 0.016250 0.008500 -0.004379
v 0.016250 0.008500 -0.004805
v 0.015824 0.008500 -0.004805
v 0.015949 0.008500 -0.004504
v 0.015450 0.008500 -0.004805
v 0.015510 0.008500 -0.004505
v 0.016676 0.008500 -0.004805
v 0.016551 0.008500 -0.004504
v 0.017050 0.008500 -0.004802
v 0.016989 0.008500 -0.004496
v 0.016816 0.008500 -0.004236
v 0.016556 0.008500 -0.004063
v 0.016250 0.008500 -0.004002
v 0.015944 0.008500 -0.004063
v 0.015682 0.008500 -0.004245
v 0.016250 0.008500 -0.005231
v 0.016250 0.008500 -0.005602
v 0.015949 0.008500 -0.005106
v 0.015944 0.008500 -0.005541
v 0.015511 0.008500 -0.005108
v 0.015684 0.008500 -0.005367
v 0.016551 0.008500 -0.005106
v 0.016556 0.008500 -0.005541
v 0.016989 0.008500 -0.005108
v 0.016816 0.008500 -0.005367
v 0.015250 0.008300 -0.004802
v 0.017174 0.008300 -0.005184
v 0.016957 0.008300 -0.005509
v 0.015540 0.008300 -0.004105
v 0.015864 0.008300 -0.003887
v 0.016633 0.008300 -0.005725
v 0.016250 0.008300 -0.005802
v 0.016250 -0.021700 -0.005802
v 0.016955 -0.029200 -0.004099
v 0.015543 -0.029200 -0.005509
v 0.016246 -0.021700 -0.003809
v 0.015864 -0.021700 -0.003887
v 0.015867 -0.021700 -0.005725
v 0.016246 -0.029200 -0.003809
v 0.016629 -0.029200 -0.003884
v 0.015540 -0.021700 -0.004105
v 0.015543 -0.021700 -0.005509
v 0.015250 -0.021700 -0.004802
v 0.015326 -0.021700 -0.005184
v 0.016629 -0.021700 -0.003884
v 0.016633 -0.021700 -0.005725
v 0.016633 -0.029200 -0.005725
v 0.015326 -0.029200 -0.005184
v 0.016955 -0.021700 -0.004099
v 0.016957 -0.021700 -0.005509
v 0.017250 -0.021700 -0.004802
v 0.017174 -0.021700 -0.005184
v 0.016957 -0.029200 -0.005509
v 0.015250 -0.029200 -0.004802
v 0.015325 -0.021700 -0.004430
v 0.015325 -0.029200 -0.004430
v 0.017173 -0.021700 -0.004423
v 0.016250 -0.029500 -0.005231
v 0.016250 -0.029500 -0.004805
v 0.016250 -0.029500 -0.004002
v 0.015944 -0.029500 -0.004063
v 0.016250 -0.029500 -0.005602
v 0.015944 -0.029500 -0.005541
v 0.015824 -0.029500 -0.004805
v 0.015949 -0.029500 -0.005106
v 0.015682 -0.029500 -0.004245
v 0.015684 -0.029500 -0.005367
v 0.015450 -0.029500 -0.004805
v 0.015511 -0.029500 -0.005108
v 0.016556 -0.029500 -0.004063
v 0.016556 -0.029500 -0.005541
v 0.016676 -0.029500 -0.004805
v 0.016551 -0.029500 -0.005106
v 0.016816 -0.029500 -0.004236
v 0.016816 -0.029500 -0.005367
v 0.017050 -0.029500 -0.004802
v 0.016989 -0.029500 -0.005108
v 0.016250 -0.029500 -0.004379
v 0.015949 -0.029500 -0.004504
v 0.015510 -0.029500 -0.004505
v 0.016551 -0.029500 -0.004504
v 0.016989 -0.029500 -0.004496
v 0.017174 -0.029200 -0.005184
v 0.015867 -0.029200 -0.005725
v 0.016250 -0.029200 -0.005802
v 0.017250 -0.029200 -0.004802
v 0.017173 -0.029200 -0.004423
v 0.015864 -0.029200 -0.003887
v 0.015540 -0.029200 -0.004105
vn 0.6537 -0.7071 0.2694
vn 0.5054 -0.7042 0.4987
vn 0.5056 -0.7042 0.4985
vn 0.6536 -0.7071 0.2698
vn -0.5001 -0.7070 -0.5001
vn -0.2706 -0.7070 -0.6533
vn -0.7079 -0.7063 0.0009
vn -0.6534 -0.7070 -0.2706
vn -0.7079 -0.7063 0.0011
vn 0.0025 -0.6940 0.7199
vn -0.2736 -0.6951 0.6649
vn -0.2738 -0.6951 0.6648
vn 0.0004 -0.6940 0.7200
vn 0.5001 -0.7070 -0.5001
vn 0.6536 -0.7067 -0.2710
vn 0.6535 -0.7067 -0.2711
vn -0.5056 -0.6981 0.5070
vn -0.5047 -0.6980 0.5079
vn -0.0000 -0.7070 -0.7072
vn 0.2706 -0.7070 -0.6533
vn 0.7071 -0.7072 0.0009
vn 0.7071 -0.7071 -0.0013
vn -0.6571 -0.7027 0.2730
vn -0.6562 -0.7026 0.2752
vn 0.2793 -0.6984 0.6589
vn 0.2762 -0.6983 0.6604
vn -0.0000 -1.0000 -0.0000
vn -0.3827 -0.0000 -0.9239
vn -0.0000 -0.0000 -1.0000
vn 0.7097 -0.0000 0.7045
vn 0.3860 -0.0000 0.9225
vn -0.9239 -0.0000 -0.3827
vn -0.7071 -0.0000 -0.7071
vn 0.9239 -0.0000 -0.3827
vn 1.0000 -0.0000 0.0006
vn 0.0036 -0.0000 1.0000
vn -0.9223 -0.0000 0.3866
vn -1.0000 -0.0000 0.0024
vn 0.3827 -0.0000 -0.9239
vn 0.7071 -0.0000 -0.7071
vn -0.7045 -0.0000 0.7097
vn 0.9243 -0.0000 0.3816
vn -0.3793 -0.0000 0.9253
vn 0.0026 0.5406 0.8412
vn 0.3270 0.5453 0.7718
vn 0.3241 0.5452 0.7731
vn 0.0007 0.5406 0.8413
vn 0.8320 0.5547 0.0008
vn 0.7689 0.5543 -0.3189
vn 0.7688 0.5543 -0.3189
vn 0.8320 0.5547 -0.0013
vn -0.5884 0.5546 -0.5884
vn -0.7688 0.5546 -0.3184
vn 0.5939 0.5515 0.5857
vn 0.7692 0.5547 0.3170
vn 0.7691 0.5547 0.3174
vn 0.5941 0.5515 0.5855
vn -0.3184 0.5546 -0.7688
vn 0.5884 0.5546 -0.5884
vn -0.0000 0.5546 -0.8321
vn -0.5920 0.5450 0.5937
vn -0.3199 0.5418 0.7773
vn -0.3202 0.5418 0.7772
vn -0.5912 0.5449 0.5946
vn 0.3184 0.5546 -0.7688
vn -0.7713 0.5499 0.3206
vn -0.7704 0.5499 0.3226
vn -0.8326 0.5538 0.0011
vn -0.8326 0.5538 0.0012
vn -0.0000 1.0000 -0.0000
vn -0.6537 0.7071 0.2694
vn -0.5054 0.7042 0.4987
vn -0.5056 0.7042 0.4985
vn -0.6536 0.7071 0.2698
vn 0.5001 0.7070 -0.5001
vn 0.2706 0.7070 -0.6533
vn 0.7079 0.7063 0.0009
vn 0.6534 0.7070 -0.2706
vn 0.7079 0.7063 0.0011
vn -0.0025 0.6940 0.7199
vn 0.2736 0.6951 0.6648
vn 0.2738 0.6951 0.6648
vn -0.0004 0.6940 0.7200
vn -0.5000 0.7070 -0.5000
vn -0.6536 0.7067 -0.2710
vn -0.6535 0.7067 -0.2711
vn -0.5000 0.7070 -0.5001
vn 0.5056 0.6981 0.5070
vn 0.5047 0.6980 0.5079
vn -0.0000 0.7070 -0.7072
vn -0.2706 0.7070 -0.6533
vn -0.7071 0.7072 0.0009
vn -0.7071 0.7071 -0.0013
vn 0.6571 0.7027 0.2730
vn 0.6562 0.7026 0.2752
vn -0.2793 0.6984 0.6589
vn -0.2762 0.6983 0.6604
vn -0.7097 -0.0000 0.7045
vn -0.3860 -0.0000 0.9225
vn -1.0000 -0.0000 0.0006
vn -0.0036 -0.0000 1.0000
vn 0.9223 -0.0000 0.3866
vn 1.0000 -0.0000 0.0024
vn 0.7045 -0.0000 0.7097
vn -0.9243 -0.0000 0.3816
vn 0.3793 -0.0000 0.9253
vn -0.0026 -0.5406 0.8412
vn -0.3270 -0.5453 0.7718
vn -0.3241 -0.5452 0.7731
vn -0.0007 -0.5406 0.8413
vn -0.8320 -0.5548 0.0008
vn -0.7688 -0.5543 -0.3189
vn -0.8320 -0.5547 -0.0013
vn 0.5884 -0.5546 -0.5884
vn 0.7688 -0.5546 -0.3184
vn -0.5939 -0.5515 0.5857
vn -0.7692 -0.5547 0.3170
vn -0.7691 -0.5547 0.3174
vn -0.5941 -0.5515 0.5855
vn 0.3184 -0.5546 -0.7688
vn -0.5884 -0.5546 -0.5884
vn -0.0000 -0.5546 -0.8321
vn 0.5920 -0.5450 0.5937
vn 0.3199 -0.5418 0.7773
vn 0.3202 -0.5418 0.7772
vn 0.5912 -0.5449 0.5946
vn -0.3184 -0.5546 -0.7688
vn 0.7713 -0.5499 0.3206
vn 0.7704 -0.5499 0.3226
vn 0.8326 -0.5538 0.0011
vn 0.8326 -0.5538 0.0012
vt 0.740688 1.000000
vt 0.731375 1.000000
vt 0.731375 1.000000
vt 0.750000 1.000000
vt 0.731375 1.000000
vt 0.731375 1.000000
vt 0.725000 0.500000
vt 0.750000 0.500000
vt 0.740688 0.500000
vt 0.740688 0.500000
vt 0.740688 0.500000
vt 0.740688 0.500000
vt 0.740688 0.500000
vt 0.740688 0.500000
vt 0.750000 0.500000
vt 0.750000 0.500000
vt 0.740688 0.500000
s 1
usemtl shiny_metal
f 22/1/1 54/2/2 40/2/3 31/1/4
f 53/3/5 56/3/6 48/3/6 50/3/5
f 4/4/7 52/1/8 49/1/8 34/4/9
f 2/5/10 24/3/11 37/3/12 38/6/13
f 10/2/14 1/1/15 45/1/16 46/2/14
f 24/3/11 21/3/17 36/3/18 37/3/12
f 57/3/19 12/3/20 44/3/20 42/3/19
f 51/4/21 22/1/1 31/1/4 30/4/22
f 21/3/17 6/1/23 35/1/24 36/3/18
f 12/3/20 10/2/14 46/2/14 44/3/20
f 6/1/23 4/4/7 34/4/9 35/1/24
f 55/2/25 2/5/10 38/6/13 39/2/26
f 1/1/15 51/4/21 30/4/22 45/1/16
f 52/1/8 53/3/5 50/3/5 49/1/8
f 54/2/2 55/2/25 39/2/26 40/2/3
f 56/3/6 57/3/19 42/3/19 48/3/6
f 29/1/27 26/1/27 27/4/27 28/4/27
f 31/1/27 29/1/27 28/4/27 30/4/27
f 33/1/27 32/4/27 27/4/27 26/1/27
f 35/1/27 34/4/27 32/4/27 33/1/27
f 49/1/27 50/3/27 48/3/27 47/1/27
f 47/1/27 48/3/27 42/3/27 41/1/27
f 45/1/27 43/1/27 44/3/27 46/2/27
f 43/1/27 41/1/27 42/3/27 44/3/27
f 36/3/27 35/1/27 33/1/27 37/3/27
f 37/3/27 33/1/27 26/1/27 38/6/27
f 40/2/27 39/2/27 29/1/27 31/1/27
f 39/2/27 38/6/27 26/1/27 29/1/27
f 28/4/27 27/4/27 41/1/27 43/1/27
f 30/4/27 28/4/27 43/1/27 45/1/27
f 32/4/27 47/1/27 41/1/27 27/4/27
f 34/4/27 49/1/27 47/1/27 32/4/27
f 11/3/28 3/3/29 57/3/29 56/3/28
f 18/2/30 17/2/31 55/2/31 54/2/30
f 25/1/32 15/3/33 53/3/33 52/1/32
f 23/1/34 7/4/35 51/4/35 1/1/34
f 17/2/31 16/6/36 2/5/36 55/2/31
f 14/1/37 13/4/38 4/4/38 6/1/37
f 5/3/39 9/2/40 10/2/40 12/3/39
f 20/3/41 14/1/37 6/1/37 21/3/41
f 7/4/35 8/1/42 22/1/42 51/4/35
f 3/3/29 5/3/39 12/3/39 57/3/29
f 19/3/43 20/3/41 21/3/41 24/3/43
f 9/2/40 23/1/34 1/1/34 10/2/40
f 16/6/36 19/3/43 24/3/43 2/5/36
f 13/4/38 25/1/32 52/1/32 4/4/38
f 15/3/33 11/3/28 56/3/28 53/3/33
f 8/1/42 18/2/30 54/2/30 22/1/42
f 64/7/44 113/7/45 86/7/46 85/7/47
f 79/8/48 73/9/49 94/9/50 93/8/51
f 78/7/52 108/10/53 102/10/53 100/7/52
f 114/7/54 81/11/55 105/9/56 91/7/57
f 81/11/55 79/8/48 93/8/51 105/9/56
f 72/7/58 78/7/52 100/7/52 96/7/58
f 73/9/49 60/7/59 92/7/59 94/9/50
f 110/7/60 72/7/58 96/7/58 87/7/60
f 59/7/61 65/7/62 95/7/63 99/7/64
f 65/7/62 64/7/44 85/7/47 95/7/63
f 60/7/59 109/7/65 88/7/65 92/7/59
f 112/12/66 59/7/61 99/7/64 107/10/67
f 108/10/53 111/8/68 101/8/69 102/10/53
f 109/7/65 110/7/60 87/7/60 88/7/65
f 111/8/68 112/12/66 107/10/67 101/8/69
f 113/7/45 114/7/54 91/7/57 86/7/46
f 90/13/70 83/14/70 84/15/70 89/16/70
f 104/13/70 103/17/70 85/7/70 86/7/70
f 94/9/70 90/13/70 89/16/70 93/8/70
f 105/9/70 104/13/70 86/7/70 91/7/70
f 98/13/70 97/16/70 84/15/70 83/14/70
f 106/13/70 95/7/70 85/7/70 103/17/70
f 102/10/70 101/8/70 97/16/70 98/13/70
f 107/10/70 99/7/70 95/7/70 106/13/70
f 100/7/70 102/10/70 98/13/70 96/7/70
f 96/7/70 98/13/70 83/14/70 87/7/70
f 88/7/70 90/13/70 94/9/70 92/7/70
f 87/7/70 83/14/70 90/13/70 88/7/70
f 89/16/70 84/15/70 103/17/70 104/13/70
f 93/8/70 89/16/70 104/13/70 105/9/70
f 97/16/70 106/13/70 103/17/70 84/15/70
f 101/8/70 107/10/70 106/13/70 97/16/70
f 62/7/31 66/7/30 114/7/30 113/7/31
f 76/8/38 82/10/37 112/12/37 111/8/38
f 63/7/39 58/7/29 110/7/29 109/7/39
f 77/10/32 76/8/38 111/8/38 108/10/32
f 82/10/37 74/7/41 59/7/41 112/12/37
f 67/7/40 63/7/39 109/7/39 60/7/40
f 70/7/43 61/7/36 64/7/36 65/7/43
f 74/7/41 70/7/43 65/7/43 59/7/41
f 58/7/29 71/7/28 72/7/28 110/7/29
f 69/9/34 67/7/40 60/7/40 73/9/34
f 71/7/28 75/7/33 78/7/33 72/7/28
f 80/9/42 68/8/35 79/8/35 81/11/42
f 66/7/30 80/9/42 81/11/42 114/7/30
f 75/7/33 77/10/32 108/10/32 78/7/33
f 68/8/35 69/9/34 73/9/34 79/8/35
f 61/7/36 62/7/31 113/7/31 64/7/36
f 136/1/71 168/2/72 154/2/73 145/1/74
f 167/3/75 170/3/76 162/3/76 164/3/75
f 118/4/77 166/1/78 163/1/78 148/4/79
f 116/5/80 138/3/81 151/3/82 152/6/83
f 124/2/84 115/1/85 159/1/86 160/2/87
f 138/3/81 135/3/88 150/3/89 151/3/82
f 171/3/90 126/3/91 158/3/91 156/3/90
f 165/4/92 136/1/71 145/1/74 144/4/93
f 135/3/88 120/1/94 149/1/95 150/3/89
f 126/3/91 124/2/84 160/2/87 158/3/91
f 120/1/94 118/4/77 148/4/79 149/1/95
f 169/2/96 116/5/80 152/6/83 153/2/97
f 115/1/85 165/4/92 144/4/93 159/1/86
f 166/1/78 167/3/75 164/3/75 163/1/78
f 168/2/72 169/2/96 153/2/97 154/2/73
f 170/3/76 171/3/90 156/3/90 162/3/76
f 143/1/70 140/1/70 141/4/70 142/4/70
f 145/1/70 143/1/70 142/4/70 144/4/70
f 147/1/70 146/4/70 141/4/70 140/1/70
f 149/1/70 148/4/70 146/4/70 147/1/70
f 163/1/70 164/3/70 162/3/70 161/1/70
f 161/1/70 162/3/70 156/3/70 155/1/70
f 159/1/70 157/1/70 158/3/70 160/2/70
f 157/1/70 155/1/70 156/3/70 158/3/70
f 150/3/70 149/1/70 147/1/70 151/3/70
f 151/3/70 147/1/70 140/1/70 152/6/70
f 154/2/70 153/2/70 143/1/70 145/1/70
f 153/2/70 152/6/70 140/1/70 143/1/70
f 142/4/70 141/4/70 155/1/70 157/1/70
f 144/4/70 142/4/70 157/1/70 159/1/70
f 146/4/70 161/1/70 155/1/70 141/4/70
f 148/4/70 163/1/70 161/1/70 146/4/70
f 125/3/39 117/3/29 171/3/29 170/3/39
f 132/2/98 131/2/99 169/2/99 168/2/98
f 139/1/34 129/3/40 167/3/40 166/1/34
f 137/1/32 121/4/100 165/4/100 115/1/32
f 131/2/99 130/6/101 116/5/101 169/2/99
f 128/1/102 127/4/103 118/4/103 120/1/102
f 119/3/28 123/2/33 124/2/33 126/3/28
f 134/3/104 128/1/102 120/1/102 135/3/104
f 121/4/100 122/1/105 136/1/105 165/4/100
f 117/3/29 119/3/28 126/3/28 171/3/29
f 133/3/106 134/3/104 135/3/104 138/3/106
f 123/2/33 137/1/32 115/1/32 124/2/33
f 130/6/101 133/3/106 138/3/106 116/5/101
f 127/4/103 139/1/34 166/1/34 118/4/103
f 129/3/40 125/3/39 170/3/39 167/3/40
f 122/1/105 132/2/98 168/2/98 136/1/105
f 178/7/107 227/7/108 200/7/109 199/7/110
f 193/8/111 187/9/112 208/9/112 207/8/113
f 192/7/114 222/10/115 216/10/115 214/7/114
f 228/7/116 195/11/117 219/9/118 205/7/119
f 195/11/117 193/8/111 207/8/113 219/9/118
f 186/7/120 192/7/114 214/7/114 210/7/120
f 187/9/112 174/7/121 206/7/121 208/9/112
f 224/7/122 186/7/120 210/7/120 201/7/122
f 173/7/123 179/7/124 209/7/125 213/7/126
f 179/7/124 178/7/107 199/7/110 209/7/125
f 174/7/121 223/7/127 202/7/127 206/7/121
f 226/12/128 173/7/123 213/7/126 221/10/129
f 222/10/115 225/8/130 215/8/131 216/10/115
f 223/7/127 224/7/122 201/7/122 202/7/127
f 225/8/130 226/12/128 221/10/129 215/8/131
f 227/7/108 228/7/116 205/7/119 200/7/109
f 204/13/27 197/14/27 198/15/27 203/16/27
f 218/13/27 217/17/27 199/7/27 200/7/27
f 208/9/27 204/13/27 203/16/27 207/8/27
f 219/9/27 218/13/27 200/7/27 205/7/27
f 212/13/27 211/16/27 198/15/27 197/14/27
f 220/13/27 209/7/27 199/7/27 217/17/27
f 216/10/27 215/8/27 211/16/27 212/13/27
f 221/10/27 213/7/27 209/7/27 220/13/27
f 214/7/27 216/10/27 212/13/27 210/7/27
f 210/7/27 212/13/27 197/14/27 201/7/27
f 202/7/27 204/13/27 208/9/27 206/7/27
f 201/7/27 197/14/27 204/13/27 202/7/27
f 203/16/27 198/15/27 217/17/27 218/13/27
f 207/8/27 203/16/27 218/13/27 219/9/27
f 211/16/27 220/13/27 217/17/27 198/15/27
f 215/8/27 221/10/27 220/13/27 211/16/27
f 176/7/99 180/7/98 228/7/98 227/7/99
f 190/8/103 196/10/102 226/12/102 225/8/103
f 177/7/28 172/7/29 224/7/29 223/7/28
f 191/10/34 190/8/103 225/8/103 222/10/34
f 196/10/102 188/7/104 173/7/104 226/12/102
f 181/7/33 177/7/28 223/7/28 174/7/33
f 184/7/106 175/7/101 178/7/101 179/7/106
f 188/7/104 184/7/106 179/7/106 173/7/104
f 172/7/29 185/7/39 186/7/39 224/7/29
f 183/9/32 181/7/33 174/7/33 187/9/32
f 185/7/39 189/7/40 192/7/40 186/7/39
f 194/9/105 182/8/100 193/8/100 195/11/105
f 180/7/98 194/9/105 195/11/105 228/7/98
f 189/7/40 191/10/34 222/10/34 192/7/40
f 182/8/100 183/9/32 187/9/32 193/8/100
f 175/7/101 176/7/99 227/7/99 178/7/101
