# Blender 5.1.0
# www.blender.org
mtllib brushes.mtl
o brushes
v -0.012000 -0.001000 0.002848
v -0.012000 -0.000600 0.002748
v -0.012000 -0.002200 0.002848
v -0.020500 -0.000600 0.002748
v -0.012000 -0.002600 0.002848
v -0.012000 -0.001000 0.002748
v -0.020500 -0.000600 0.002848
v -0.020500 -0.001000 0.002748
v -0.012000 -0.002200 0.002748
v -0.020500 -0.002200 0.002748
v -0.012000 -0.002600 0.002748
v -0.020500 -0.002600 0.002748
v -0.020500 -0.002600 0.002848
v -0.020500 -0.002200 0.002848
v -0.020500 -0.001000 0.002848
v -0.012000 -0.000600 0.002848
v -0.022379 -0.001000 0.002848
v -0.022379 -0.000600 0.002848
v -0.022279 -0.002600 0.002948
v -0.022279 -0.002200 0.002948
v -0.022379 -0.002200 0.002848
v -0.022279 -0.001000 0.002948
v -0.022279 -0.000600 0.002948
v -0.022379 -0.002600 0.002848
v -0.010121 -0.001000 0.002848
v -0.010121 -0.000600 0.002848
v -0.010121 -0.002200 0.002848
v -0.010121 -0.002600 0.002848
v -0.010221 -0.002200 0.002948
v -0.010221 -0.002600 0.002948
v -0.010221 -0.001000 0.002948
v -0.010221 -0.000600 0.002948
v -0.022379 -0.001000 0.005700
v -0.022379 -0.000600 0.005300
v -0.022279 -0.002600 0.005300
v -0.022279 -0.002200 0.005700
v -0.022379 -0.002200 0.005700
v -0.022279 -0.001000 0.005700
v -0.022279 -0.000600 0.005300
v -0.022379 -0.002600 0.005300
v -0.010121 -0.001000 0.005700
v -0.010121 -0.000600 0.005300
v -0.010121 -0.002200 0.005700
v -0.010121 -0.002600 0.005300
v -0.010221 -0.002200 0.005700
v -0.010221 -0.002600 0.005300
v -0.010221 -0.001000 0.005700
v -0.010221 -0.000600 0.005300
v -0.022279 -0.001120 0.003303
v -0.022279 -0.000600 0.003148
v -0.022379 -0.002600 0.003148
v -0.022379 -0.002080 0.003303
v -0.022379 -0.000600 0.003148
v -0.022279 -0.002600 0.003148
v -0.022379 -0.001120 0.003303
v -0.022279 -0.002080 0.003303
v -0.010221 -0.002080 0.003303
v -0.010221 -0.002600 0.003148
v -0.010221 -0.001120 0.003303
v -0.010221 -0.000600 0.003148
v -0.010121 -0.002600 0.003148
v -0.010121 -0.000600 0.003148
v -0.010121 -0.001120 0.003303
v -0.010121 -0.002080 0.003303
v -0.022279 -0.000600 0.004900
v -0.022379 -0.002600 0.004900
v -0.022379 -0.000600 0.004900
v -0.022279 -0.002600 0.004900
v -0.022379 -0.001120 0.005145
v -0.022279 -0.002080 0.005145
v -0.022279 -0.001120 0.005145
v -0.022379 -0.002080 0.005145
v -0.010221 -0.002600 0.004900
v -0.010121 -0.002600 0.004900
v -0.010121 -0.000600 0.004900
v -0.010221 -0.002080 0.005145
v -0.010221 -0.001120 0.005145
v -0.010221 -0.000600 0.004900
v -0.010121 -0.001120 0.005145
v -0.010121 -0.002080 0.005145
v -0.012100 -0.002604 0.002748
v -0.012100 -0.002604 0.002848
v 0.012000 0.001000 0.002848
v 0.012000 0.000600 0.002748
v 0.012000 0.002200 0.002848
v 0.020500 0.000600 0.002748
v 0.012000 0.002600 0.002848
v 0.012000 0.001000 0.002748
v 0.020500 0.000600 0.002848
v 0.020500 0.001000 0.002748
v 0.012000 0.002200 0.002748
v 0.020500 0.002200 0.002748
v 0.012000 0.002600 0.002748
v 0.020500 0.002600 0.002748
v 0.020500 0.002600 0.002848
v 0.020500 0.002200 0.002848
v 0.020500 0.001000 0.002848
v 0.012000 0.000600 0.002848
v 0.022379 0.001000 0.002848
v 0.022379 0.000600 0.002848
v 0.022279 0.002600 0.002948
v 0.022279 0.002200 0.002948
v 0.022379 0.002200 0.002848
v 0.022279 0.001000 0.002948
v 0.022279 0.000600 0.002948
v 0.022379 0.002600 0.002848
v 0.010121 0.001000 0.002848
v 0.010121 0.000600 0.002848
v 0.010121 0.002200 0.002848
v 0.010121 0.002600 0.002848
v 0.010221 0.002200 0.002948
v 0.010221 0.002600 0.002948
v 0.010221 0.001000 0.002948
v 0.010221 0.000600 0.002948
v 0.022379 0.001000 0.005700
v 0.022379 0.000600 0.005300
v 0.022279 0.002600 0.005300
v 0.022279 0.002200 0.005700
v 0.022379 0.002200 0.005700
v 0.022279 0.001000 0.005700
v 0.022279 0.000600 0.005300
v 0.022379 0.002600 0.005300
v 0.010121 0.001000 0.005700
v 0.010121 0.000600 0.005300
v 0.010121 0.002200 0.005700
v 0.010121 0.002600 0.005300
v 0.010221 0.002200 0.005700
v 0.010221 0.002600 0.005300
v 0.010221 0.001000 0.005700
v 0.010221 0.000600 0.005300
v 0.022279 0.001120 0.003303
v 0.022279 0.000600 0.003148
v 0.022379 0.002600 0.003148
v 0.022379 0.002080 0.003303
v 0.022379 0.000600 0.003148
v 0.022279 0.002600 0.003148
v 0.022379 0.001120 0.003303
v 0.022279 0.002080 0.003303
v 0.010221 0.002080 0.003303
v 0.010221 0.002600 0.003148
v 0.010221 0.001120 0.003303
v 0.010221 0.000600 0.003148
v 0.010121 0.002600 0.003148
v 0.010121 0.000600 0.003148
v 0.010121 0.001120 0.003303
v 0.010121 0.002080 0.003303
v 0.022279 0.000600 0.004900
v 0.022379 0.002600 0.004900
v 0.022379 0.000600 0.004900
v 0.022279 0.002600 0.004900
v 0.022379 0.001120 0.005145
v 0.022279 0.002080 0.005145
v 0.022279 0.001120 0.005145
v 0.022379 0.002080 0.005145
v 0.010221 0.002600 0.004900
v 0.010121 0.002600 0.004900
v 0.010121 0.000600 0.004900
v 0.010221 0.002080 0.005145
v 0.010221 0.001120 0.005145
v 0.010221 0.000600 0.004900
v 0.010121 0.001120 0.005145
v 0.010121 0.002080 0.005145
v 0.012100 0.002604 0.002748
v 0.012100 0.002604 0.002848
vn -0.0531 -0.0000 -0.9986
vn -0.0000 -1.0000 -0.0000
vn 0.0561 -0.0000 0.9984
vn -0.0561 -0.0000 0.9984
vn 0.0531 -0.0000 -0.9986
vn -1.0000 -0.0000 -0.0000
vn -0.0000 1.0000 -0.0000
vn 1.0000 -0.0000 -0.0000
vn 0.0179 -0.9998 -0.0000
vn 0.0185 -0.9998 -0.0000
vn -0.0000 -0.7071 0.7071
vn -0.0000 -0.0000 1.0000
vn -0.0000 0.7071 0.7071
vn -0.0000 -0.0000 -1.0000
vn 0.0364 -0.9993 -0.0000
vn -0.0179 0.9998 -0.0000
vn -0.0185 0.9998 -0.0000
vn -0.0364 0.9993 -0.0000
vt 0.600000 0.907600
vt 0.600000 0.916000
vt 0.600000 0.949600
vt 0.600000 0.949600
vt 0.600000 0.941200
vt 0.600000 0.916000
vt 0.600000 0.941200
vt 0.600000 0.907600
vt 0.600000 0.941200
vt 0.600000 0.907600
vt 0.600000 0.916000
vt 0.600000 0.907600
vt 0.600000 0.907600
vt 0.600000 0.941200
vt 0.600000 0.941200
vt 0.600000 0.949600
vt 0.600000 0.949600
vt 0.600000 0.949600
vt 0.600000 0.949600
vt 0.600001 0.907600
vt 0.600000 0.941200
vt 0.600000 0.916000
vt 0.600000 0.941200
vt 0.600000 0.949600
vt 0.600000 0.907600
vt 0.600000 0.907600
s 1
usemtl brass
f 4/1/1 8/2/1 17/2/1 18/1/1
f 12/3/2 13/4/2 19/4/2 24/3/2
f 13/4/3 14/5/3 20/5/3 19/4/3
f 1/6/4 3/7/4 29/7/4 31/6/4
f 16/8/4 1/6/4 31/6/4 32/8/4
f 9/9/5 6/6/5 25/6/5 27/9/5
f 78/10/6 77/11/6 47/6/6 48/8/6
f 65/12/7 67/13/7 34/1/7 39/13/7
f 77/11/6 76/14/6 45/7/6 47/6/6
f 8/2/1 10/5/1 21/5/1 17/2/1
f 15/2/3 7/13/3 23/13/3 22/2/3
f 14/5/3 15/2/3 22/2/3 20/5/3
f 10/5/1 12/3/1 24/3/1 21/5/1
f 7/13/7 4/1/7 18/1/7 23/13/7
f 72/15/6 66/4/6 40/3/6 37/5/6
f 76/14/6 73/16/6 46/17/6 45/7/6
f 71/2/8 65/12/8 39/13/8 38/2/8
f 5/17/9 11/4/10 28/4/2 30/17/2
f 11/4/5 9/9/5 27/9/5 28/4/5
f 2/13/7 16/8/7 32/8/7 26/13/7
f 6/6/5 2/13/5 26/13/5 25/6/5
f 3/7/4 5/17/4 30/17/4 29/7/4
f 37/5/11 40/3/11 35/4/11 36/5/11
f 33/2/12 37/5/12 36/5/12 38/2/12
f 34/1/13 33/2/13 38/2/13 39/13/13
f 44/4/11 43/9/11 45/7/11 46/17/11
f 43/9/12 41/6/12 47/6/12 45/7/12
f 41/6/13 42/13/13 48/8/13 47/6/13
f 66/4/2 68/18/2 35/4/2 40/3/2
f 73/16/2 74/19/2 44/4/2 46/17/2
f 67/13/6 69/6/6 33/2/6 34/1/6
f 68/18/8 70/5/8 36/5/8 35/4/8
f 79/6/8 75/20/8 42/13/8 41/6/8
f 69/6/6 72/15/6 37/5/6 33/2/6
f 80/21/8 79/6/8 41/6/8 43/9/8
f 75/20/7 78/10/7 48/8/7 42/13/7
f 70/5/8 71/2/8 38/2/8 36/5/8
f 74/19/8 80/21/8 43/9/8 44/4/8
f 20/5/8 22/2/8 49/22/8 56/23/8
f 17/2/6 21/5/6 52/23/6 55/2/6
f 19/4/8 20/5/8 56/23/8 54/24/8
f 18/1/6 17/2/6 55/2/6 53/13/6
f 24/3/2 19/4/2 54/24/2 51/4/2
f 22/2/8 23/13/8 50/25/8 49/22/8
f 21/5/6 24/3/6 51/4/6 52/23/6
f 23/13/7 18/1/7 53/13/7 50/25/7
f 28/4/8 27/9/8 64/7/8 61/19/8
f 26/13/7 32/8/7 60/25/7 62/26/7
f 27/9/8 25/6/8 63/6/8 64/7/8
f 25/6/8 26/13/8 62/26/8 63/6/8
f 30/17/2 28/4/2 61/19/2 58/16/2
f 29/7/6 30/17/6 58/16/6 57/7/6
f 31/6/6 29/7/6 57/7/6 59/11/6
f 32/8/6 31/6/6 59/11/6 60/25/6
f 71/2/14 70/5/14 72/5/14 69/2/14
f 54/24/8 56/23/8 70/5/8 68/18/8
f 53/13/6 55/2/6 69/6/6 67/13/6
f 51/4/2 54/24/2 68/18/2 66/4/2
f 49/22/8 50/25/8 65/12/8 71/2/8
f 52/23/6 51/4/6 66/4/6 72/15/6
f 50/25/7 53/13/7 67/13/7 65/12/7
f 61/19/8 64/7/8 80/21/8 74/19/8
f 62/26/7 60/25/7 78/10/7 75/20/7
f 63/6/8 62/26/8 75/20/8 79/6/8
f 58/16/2 61/19/2 74/19/2 73/16/2
f 57/7/6 58/16/6 73/16/6 76/14/6
f 77/11/2 59/11/2 63/11/2 79/11/2
f 60/25/6 59/11/6 77/11/6 78/10/6
f 76/14/14 77/11/14 79/11/14 80/14/14
f 57/7/7 76/14/7 80/14/7 64/7/7
f 59/11/12 57/7/12 64/7/12 63/11/12
f 56/23/12 49/22/12 55/22/12 52/23/12
f 70/5/7 56/23/7 52/23/7 72/5/7
f 49/22/2 71/2/2 69/2/2 55/22/2
f 11/4/10 5/17/9 82/17/15 81/4/15
f 86/1/5 90/2/5 99/2/5 100/1/5
f 94/3/7 95/4/7 101/4/7 106/3/7
f 95/4/4 96/5/4 102/5/4 101/4/4
f 83/6/3 85/7/3 111/7/3 113/6/3
f 98/8/3 83/6/3 113/6/3 114/8/3
f 91/9/1 88/6/1 107/6/1 109/9/1
f 160/10/8 159/11/8 129/6/8 130/8/8
f 147/12/2 149/13/2 116/1/2 121/13/2
f 159/11/8 158/14/8 127/7/8 129/6/8
f 90/2/5 92/5/5 103/5/5 99/2/5
f 97/2/4 89/13/4 105/13/4 104/2/4
f 96/5/4 97/2/4 104/2/4 102/5/4
f 92/5/5 94/3/5 106/3/5 103/5/5
f 89/13/2 86/1/2 100/1/2 105/13/2
f 154/15/8 148/4/8 122/3/8 119/5/8
f 158/14/8 155/16/8 128/17/8 127/7/8
f 153/2/6 147/12/6 121/13/6 120/2/6
f 87/17/16 93/4/17 110/4/7 112/17/7
f 93/4/1 91/9/1 109/9/1 110/4/1
f 84/13/2 98/8/2 114/8/2 108/13/2
f 88/6/1 84/13/1 108/13/1 107/6/1
f 85/7/3 87/17/3 112/17/3 111/7/3
f 119/5/13 122/3/13 117/4/13 118/5/13
f 115/2/12 119/5/12 118/5/12 120/2/12
f 116/1/11 115/2/11 120/2/11 121/13/11
f 126/4/13 125/9/13 127/7/13 128/17/13
f 125/9/12 123/6/12 129/6/12 127/7/12
f 123/6/11 124/13/11 130/8/11 129/6/11
f 148/4/7 150/18/7 117/4/7 122/3/7
f 155/16/7 156/19/7 126/4/7 128/17/7
f 149/13/8 151/6/8 115/2/8 116/1/8
f 150/18/6 152/5/6 118/5/6 117/4/6
f 161/6/6 157/20/6 124/13/6 123/6/6
f 151/6/8 154/15/8 119/5/8 115/2/8
f 162/21/6 161/6/6 123/6/6 125/9/6
f 157/20/2 160/10/2 130/8/2 124/13/2
f 152/5/6 153/2/6 120/2/6 118/5/6
f 156/19/6 162/21/6 125/9/6 126/4/6
f 102/5/6 104/2/6 131/22/6 138/23/6
f 99/2/8 103/5/8 134/23/8 137/2/8
f 101/4/6 102/5/6 138/23/6 136/24/6
f 100/1/8 99/2/8 137/2/8 135/13/8
f 106/3/7 101/4/7 136/24/7 133/4/7
f 104/2/6 105/13/6 132/25/6 131/22/6
f 103/5/8 106/3/8 133/4/8 134/23/8
f 105/13/2 100/1/2 135/13/2 132/25/2
f 110/4/6 109/9/6 146/7/6 143/19/6
f 108/13/2 114/8/2 142/25/2 144/26/2
f 109/9/6 107/6/6 145/6/6 146/7/6
f 107/6/6 108/13/6 144/26/6 145/6/6
f 112/17/7 110/4/7 143/19/7 140/16/7
f 111/7/8 112/17/8 140/16/8 139/7/8
f 113/6/8 111/7/8 139/7/8 141/11/8
f 114/8/8 113/6/8 141/11/8 142/25/8
f 153/2/14 152/5/14 154/5/14 151/2/14
f 136/24/6 138/23/6 152/5/6 150/18/6
f 135/13/8 137/2/8 151/6/8 149/13/8
f 133/4/7 136/24/7 150/18/7 148/4/7
f 131/22/6 132/25/6 147/12/6 153/2/6
f 134/23/8 133/4/8 148/4/8 154/15/8
f 132/25/2 135/13/2 149/13/2 147/12/2
f 143/19/6 146/7/6 162/21/6 156/19/6
f 144/26/2 142/25/2 160/10/2 157/20/2
f 145/6/6 144/26/6 157/20/6 161/6/6
f 140/16/7 143/19/7 156/19/7 155/16/7
f 139/7/8 140/16/8 155/16/8 158/14/8
f 159/11/7 141/11/7 145/11/7 161/11/7
f 142/25/8 141/11/8 159/11/8 160/10/8
f 158/14/14 159/11/14 161/11/14 162/14/14
f 139/7/2 158/14/2 162/14/2 146/7/2
f 141/11/12 139/7/12 146/7/12 145/11/12
f 138/23/12 131/22/12 137/22/12 134/23/12
f 152/5/2 138/23/2 134/23/2 154/5/2
f 131/22/7 153/2/7 151/2/7 137/22/7
f 93/4/17 87/17/16 164/17/18 163/4/18
